<svg width="24" height="24" viewBox="0 0 24 24" fill="none" xmlns="http://www.w3.org/2000/svg">
<path d="M13.5443 10.4565C12.7252 9.63768 11.6145 9.17773 10.4563 9.17773C9.29815 9.17773 8.18741 9.63768 7.3683 10.4565L4.2793 13.5445C3.46018 14.3636 3 15.4745 3 16.633C3 17.7914 3.46018 18.9023 4.2793 19.7215C5.09842 20.5406 6.20939 21.0008 7.3678 21.0008C8.52621 21.0008 9.63718 20.5406 10.4563 19.7215L12.0003 18.1775" stroke="#0075FF" stroke-linecap="round" stroke-linejoin="round"/>
<path d="M10.4561 13.5443C11.2752 14.3631 12.3859 14.823 13.5441 14.823C14.7022 14.823 15.813 14.3631 16.6321 13.5443L19.7211 10.4563C20.5402 9.63718 21.0004 8.52621 21.0004 7.3678C21.0004 6.20939 20.5402 5.09842 19.7211 4.2793C18.9019 3.46018 17.791 3 16.6326 3C15.4741 3 14.3632 3.46018 13.5441 4.2793L12.0001 5.8233" stroke="#0075FF" stroke-linecap="round" stroke-linejoin="round"/>
</svg>
