<svg width="420" height="60" viewBox="0 0 420 60" fill="none" xmlns="http://www.w3.org/2000/svg">
<rect width="201.804" height="60" rx="5" fill="#393939"/>
<path d="M76.375 22H73.233V11.8182H76.5142C77.5019 11.8182 78.3471 12.022 79.0497 12.4297C79.7524 12.834 80.291 13.4157 80.6655 14.1747C81.04 14.9304 81.2273 15.8352 81.2273 16.8892C81.2273 17.9498 81.0384 18.8629 80.6605 19.6286C80.2827 20.3909 79.7325 20.9775 79.0099 21.3885C78.2874 21.7962 77.4091 22 76.375 22ZM74.4659 20.9062H76.2955C77.1373 20.9062 77.835 20.7438 78.3885 20.419C78.942 20.0942 79.3546 19.6319 79.6264 19.032C79.8982 18.4321 80.0341 17.7178 80.0341 16.8892C80.0341 16.0672 79.8999 15.3596 79.6314 14.7663C79.3629 14.1697 78.9619 13.7124 78.4283 13.3942C77.8946 13.0727 77.2301 12.9119 76.4347 12.9119H74.4659V20.9062ZM86.2386 22.1591C85.5492 22.1591 84.9444 21.995 84.424 21.6669C83.907 21.3388 83.5026 20.8797 83.2109 20.2898C82.9226 19.6998 82.7784 19.0104 82.7784 18.2216C82.7784 17.4261 82.9226 16.7318 83.2109 16.1385C83.5026 15.5452 83.907 15.0845 84.424 14.7564C84.9444 14.4283 85.5492 14.2642 86.2386 14.2642C86.928 14.2642 87.5313 14.4283 88.0483 14.7564C88.5687 15.0845 88.973 15.5452 89.2614 16.1385C89.553 16.7318 89.6989 17.4261 89.6989 18.2216C89.6989 19.0104 89.553 19.6998 89.2614 20.2898C88.973 20.8797 88.5687 21.3388 88.0483 21.6669C87.5313 21.995 86.928 22.1591 86.2386 22.1591ZM86.2386 21.1051C86.7623 21.1051 87.1932 20.9709 87.5312 20.7024C87.8693 20.4339 88.1196 20.081 88.282 19.6435C88.4444 19.206 88.5256 18.732 88.5256 18.2216C88.5256 17.7112 88.4444 17.2356 88.282 16.7947C88.1196 16.3539 87.8693 15.9976 87.5312 15.7259C87.1932 15.4541 86.7623 15.3182 86.2386 15.3182C85.715 15.3182 85.2841 15.4541 84.946 15.7259C84.608 15.9976 84.3577 16.3539 84.1953 16.7947C84.0329 17.2356 83.9517 17.7112 83.9517 18.2216C83.9517 18.732 84.0329 19.206 84.1953 19.6435C84.3577 20.081 84.608 20.4339 84.946 20.7024C85.2841 20.9709 85.715 21.1051 86.2386 21.1051ZM92.9602 22L90.6335 14.3636H91.8665L93.517 20.2102H93.5966L95.2273 14.3636H96.4801L98.0909 20.1903H98.1705L99.821 14.3636H101.054L98.7273 22H97.5739L95.9034 16.1335H95.7841L94.1136 22H92.9602ZM103.778 17.4062V22H102.605V14.3636H103.739V15.5568H103.838C104.017 15.169 104.289 14.8575 104.653 14.6222C105.018 14.3835 105.489 14.2642 106.065 14.2642C106.582 14.2642 107.035 14.3703 107.423 14.5824C107.81 14.7912 108.112 15.1094 108.327 15.5369C108.543 15.9612 108.651 16.4981 108.651 17.1477V22H107.477V17.2273C107.477 16.6274 107.321 16.16 107.01 15.8253C106.698 15.4872 106.271 15.3182 105.727 15.3182C105.353 15.3182 105.018 15.3994 104.723 15.5618C104.431 15.7242 104.201 15.9612 104.032 16.2727C103.863 16.5843 103.778 16.9621 103.778 17.4062ZM111.968 11.8182V22H110.795V11.8182H111.968ZM117.219 22.1591C116.53 22.1591 115.925 21.995 115.404 21.6669C114.887 21.3388 114.483 20.8797 114.191 20.2898C113.903 19.6998 113.759 19.0104 113.759 18.2216C113.759 17.4261 113.903 16.7318 114.191 16.1385C114.483 15.5452 114.887 15.0845 115.404 14.7564C115.925 14.4283 116.53 14.2642 117.219 14.2642C117.908 14.2642 118.512 14.4283 119.029 14.7564C119.549 15.0845 119.953 15.5452 120.242 16.1385C120.533 16.7318 120.679 17.4261 120.679 18.2216C120.679 19.0104 120.533 19.6998 120.242 20.2898C119.953 20.8797 119.549 21.3388 119.029 21.6669C118.512 21.995 117.908 22.1591 117.219 22.1591ZM117.219 21.1051C117.743 21.1051 118.174 20.9709 118.512 20.7024C118.85 20.4339 119.1 20.081 119.262 19.6435C119.425 19.206 119.506 18.732 119.506 18.2216C119.506 17.7112 119.425 17.2356 119.262 16.7947C119.1 16.3539 118.85 15.9976 118.512 15.7259C118.174 15.4541 117.743 15.3182 117.219 15.3182C116.695 15.3182 116.265 15.4541 115.926 15.7259C115.588 15.9976 115.338 16.3539 115.176 16.7947C115.013 17.2356 114.932 17.7112 114.932 18.2216C114.932 18.732 115.013 19.206 115.176 19.6435C115.338 20.081 115.588 20.4339 115.926 20.7024C116.265 20.9709 116.695 21.1051 117.219 21.1051ZM124.718 22.179C124.234 22.179 123.794 22.0878 123.4 21.9055C123.006 21.7199 122.692 21.4531 122.46 21.1051C122.228 20.7538 122.112 20.3295 122.112 19.8324C122.112 19.3949 122.199 19.0402 122.371 18.7685C122.543 18.4934 122.774 18.2779 123.062 18.1222C123.35 17.9664 123.669 17.8504 124.017 17.7741C124.368 17.6946 124.721 17.6316 125.075 17.5852C125.539 17.5256 125.916 17.4808 126.204 17.451C126.496 17.4179 126.708 17.3632 126.84 17.2869C126.976 17.2107 127.044 17.0781 127.044 16.8892V16.8494C127.044 16.3589 126.91 15.9777 126.642 15.706C126.376 15.4342 125.974 15.2983 125.433 15.2983C124.873 15.2983 124.434 15.4209 124.116 15.6662C123.798 15.9115 123.574 16.1733 123.445 16.4517L122.331 16.054C122.53 15.59 122.795 15.2287 123.127 14.9702C123.461 14.7083 123.826 14.526 124.22 14.4233C124.618 14.3172 125.009 14.2642 125.394 14.2642C125.639 14.2642 125.921 14.294 126.239 14.3537C126.56 14.41 126.87 14.5277 127.169 14.7067C127.47 14.8857 127.72 15.1558 127.919 15.517C128.118 15.8783 128.218 16.3622 128.218 16.9688V22H127.044V20.9659H126.985C126.905 21.1316 126.772 21.3089 126.587 21.4979C126.401 21.6868 126.154 21.8475 125.846 21.9801C125.538 22.1127 125.162 22.179 124.718 22.179ZM124.896 21.125C125.36 21.125 125.752 21.0339 126.07 20.8516C126.391 20.6693 126.633 20.4339 126.796 20.1456C126.961 19.8572 127.044 19.554 127.044 19.2358V18.1619C126.994 18.2216 126.885 18.2763 126.716 18.326C126.55 18.3724 126.358 18.4138 126.139 18.4503C125.924 18.4834 125.713 18.5133 125.508 18.5398C125.306 18.563 125.142 18.5829 125.016 18.5994C124.711 18.6392 124.426 18.7038 124.161 18.7933C123.899 18.8795 123.687 19.0104 123.524 19.1861C123.365 19.3584 123.286 19.5937 123.286 19.892C123.286 20.2997 123.436 20.608 123.738 20.8168C124.043 21.0223 124.429 21.125 124.896 21.125ZM133.243 22.1591C132.606 22.1591 132.044 21.9983 131.557 21.6768C131.07 21.352 130.689 20.8946 130.414 20.3047C130.139 19.7114 130.001 19.0104 130.001 18.2017C130.001 17.3996 130.139 16.7036 130.414 16.1136C130.689 15.5237 131.072 15.0679 131.562 14.7464C132.053 14.425 132.619 14.2642 133.262 14.2642C133.76 14.2642 134.152 14.3471 134.441 14.5128C134.732 14.6752 134.954 14.8608 135.107 15.0696C135.263 15.2751 135.384 15.4441 135.47 15.5767H135.569V11.8182H136.743V22H135.609V20.8267H135.47C135.384 20.9659 135.261 21.1416 135.102 21.3537C134.943 21.5625 134.716 21.7498 134.421 21.9155C134.126 22.0779 133.733 22.1591 133.243 22.1591ZM133.402 21.1051C133.872 21.1051 134.27 20.9825 134.595 20.7372C134.92 20.4886 135.167 20.1456 135.336 19.7081C135.505 19.2673 135.589 18.7585 135.589 18.1818C135.589 17.6117 135.506 17.1129 135.341 16.6854C135.175 16.2545 134.93 15.9197 134.605 15.6811C134.28 15.4392 133.879 15.3182 133.402 15.3182C132.904 15.3182 132.49 15.4458 132.159 15.701C131.831 15.9529 131.584 16.2959 131.418 16.7301C131.256 17.161 131.174 17.6449 131.174 18.1818C131.174 18.7254 131.257 19.2192 131.423 19.6634C131.592 20.1042 131.841 20.4555 132.169 20.7173C132.5 20.9759 132.911 21.1051 133.402 21.1051ZM146.094 22.1591C145.405 22.1591 144.8 21.995 144.279 21.6669C143.762 21.3388 143.358 20.8797 143.066 20.2898C142.778 19.6998 142.634 19.0104 142.634 18.2216C142.634 17.4261 142.778 16.7318 143.066 16.1385C143.358 15.5452 143.762 15.0845 144.279 14.7564C144.8 14.4283 145.405 14.2642 146.094 14.2642C146.783 14.2642 147.387 14.4283 147.904 14.7564C148.424 15.0845 148.828 15.5452 149.117 16.1385C149.408 16.7318 149.554 17.4261 149.554 18.2216C149.554 19.0104 149.408 19.6998 149.117 20.2898C148.828 20.8797 148.424 21.3388 147.904 21.6669C147.387 21.995 146.783 22.1591 146.094 22.1591ZM146.094 21.1051C146.618 21.1051 147.049 20.9709 147.387 20.7024C147.725 20.4339 147.975 20.081 148.137 19.6435C148.3 19.206 148.381 18.732 148.381 18.2216C148.381 17.7112 148.3 17.2356 148.137 16.7947C147.975 16.3539 147.725 15.9976 147.387 15.7259C147.049 15.4541 146.618 15.3182 146.094 15.3182C145.57 15.3182 145.14 15.4541 144.801 15.7259C144.463 15.9976 144.213 16.3539 144.051 16.7947C143.888 17.2356 143.807 17.7112 143.807 18.2216C143.807 18.732 143.888 19.206 144.051 19.6435C144.213 20.081 144.463 20.4339 144.801 20.7024C145.14 20.9709 145.57 21.1051 146.094 21.1051ZM152.519 17.4062V22H151.345V14.3636H152.479V15.5568H152.578C152.757 15.169 153.029 14.8575 153.394 14.6222C153.758 14.3835 154.229 14.2642 154.806 14.2642C155.323 14.2642 155.775 14.3703 156.163 14.5824C156.551 14.7912 156.852 15.1094 157.068 15.5369C157.283 15.9612 157.391 16.4981 157.391 17.1477V22H156.218V17.2273C156.218 16.6274 156.062 16.16 155.75 15.8253C155.439 15.4872 155.011 15.3182 154.468 15.3182C154.093 15.3182 153.758 15.3994 153.463 15.5618C153.172 15.7242 152.941 15.9612 152.772 16.2727C152.603 16.5843 152.519 16.9621 152.519 17.4062ZM166.793 14.3636V15.358H162.836V14.3636H166.793ZM163.989 12.5341H165.163V19.8125C165.163 20.1439 165.211 20.3925 165.307 20.5582C165.406 20.7206 165.532 20.83 165.685 20.8864C165.84 20.9394 166.004 20.9659 166.177 20.9659C166.306 20.9659 166.412 20.9593 166.495 20.946C166.578 20.9295 166.644 20.9162 166.694 20.9062L166.933 21.9602C166.853 21.9901 166.742 22.0199 166.599 22.0497C166.457 22.0829 166.276 22.0994 166.058 22.0994C165.726 22.0994 165.401 22.0282 165.083 21.8857C164.768 21.7431 164.506 21.526 164.298 21.2344C164.092 20.9427 163.989 20.5748 163.989 20.1307V12.5341ZM169.896 17.4062V22H168.722V11.8182H169.896V15.5568H169.995C170.174 15.1624 170.442 14.8492 170.8 14.6172C171.162 14.3819 171.642 14.2642 172.242 14.2642C172.763 14.2642 173.218 14.3686 173.609 14.5774C174 14.7829 174.304 15.0994 174.519 15.527C174.738 15.9512 174.847 16.4915 174.847 17.1477V22H173.674V17.2273C173.674 16.6207 173.517 16.1518 173.202 15.8203C172.89 15.4856 172.458 15.3182 171.904 15.3182C171.52 15.3182 171.175 15.3994 170.87 15.5618C170.568 15.7242 170.33 15.9612 170.154 16.2727C169.982 16.5843 169.896 16.9621 169.896 17.4062ZM180.195 22.1591C179.46 22.1591 178.825 21.9967 178.291 21.6719C177.761 21.3438 177.352 20.8864 177.063 20.2997C176.778 19.7098 176.636 19.0237 176.636 18.2415C176.636 17.4593 176.778 16.7699 177.063 16.1733C177.352 15.5734 177.753 15.1061 178.267 14.7713C178.784 14.4332 179.387 14.2642 180.076 14.2642C180.474 14.2642 180.867 14.3305 181.254 14.4631C181.642 14.5956 181.995 14.8111 182.313 15.1094C182.632 15.4044 182.885 15.7955 183.074 16.2827C183.263 16.7699 183.357 17.3698 183.357 18.0824V18.5795H177.471V17.5653H182.164C182.164 17.1345 182.078 16.75 181.906 16.4119C181.737 16.0739 181.495 15.8071 181.18 15.6115C180.868 15.416 180.5 15.3182 180.076 15.3182C179.609 15.3182 179.204 15.4342 178.863 15.6662C178.525 15.8949 178.265 16.1932 178.083 16.5611C177.9 16.929 177.809 17.3234 177.809 17.7443V18.4205C177.809 18.9972 177.909 19.486 178.107 19.8871C178.31 20.2848 178.59 20.5881 178.948 20.7969C179.306 21.0024 179.722 21.1051 180.195 21.1051C180.504 21.1051 180.782 21.062 181.031 20.9759C181.283 20.8864 181.5 20.7538 181.682 20.5781C181.864 20.3991 182.005 20.1771 182.105 19.9119L183.238 20.2301C183.119 20.6146 182.918 20.9527 182.637 21.2443C182.355 21.5327 182.007 21.758 181.593 21.9205C181.178 22.0795 180.713 22.1591 180.195 22.1591Z" fill="white"/>
<path d="M84.3942 48H81.4283L85.9474 34.9091H89.5142L94.027 48H91.0611L87.782 37.9006H87.6797L84.3942 48ZM84.2088 42.8544H91.2145V45.0149H84.2088V42.8544ZM95.5515 51.6818V38.1818H98.2362V39.831H98.3576C98.4769 39.5668 98.6495 39.2983 98.8754 39.0256C99.1055 38.7486 99.4038 38.5185 99.7702 38.3352C100.141 38.1477 100.601 38.054 101.151 38.054C101.867 38.054 102.527 38.2415 103.132 38.6165C103.738 38.9872 104.221 39.5476 104.583 40.2976C104.946 41.0433 105.127 41.9787 105.127 43.1037C105.127 44.1989 104.95 45.1236 104.596 45.8778C104.247 46.6278 103.77 47.1967 103.164 47.5845C102.564 47.968 101.89 48.1598 101.145 48.1598C100.616 48.1598 100.167 48.0724 99.7958 47.8977C99.4293 47.723 99.1289 47.5036 98.8945 47.2393C98.6602 46.9709 98.4812 46.7003 98.3576 46.4276H98.2745V51.6818H95.5515ZM98.217 43.0909C98.217 43.6747 98.2979 44.1839 98.4599 44.6186C98.6218 45.0533 98.8562 45.392 99.163 45.6349C99.4698 45.8736 99.8427 45.9929 100.282 45.9929C100.725 45.9929 101.1 45.8714 101.407 45.6286C101.713 45.3814 101.946 45.0405 102.103 44.6058C102.265 44.1669 102.346 43.6619 102.346 43.0909C102.346 42.5241 102.267 42.0256 102.11 41.5952C101.952 41.1648 101.72 40.8281 101.413 40.5852C101.106 40.3423 100.729 40.2209 100.282 40.2209C99.8384 40.2209 99.4634 40.3381 99.1566 40.5724C98.854 40.8068 98.6218 41.1392 98.4599 41.5696C98.2979 42 98.217 42.5071 98.217 43.0909ZM106.942 51.6818V38.1818H109.627V39.831H109.748C109.868 39.5668 110.04 39.2983 110.266 39.0256C110.496 38.7486 110.794 38.5185 111.161 38.3352C111.532 38.1477 111.992 38.054 112.542 38.054C113.257 38.054 113.918 38.2415 114.523 38.6165C115.128 38.9872 115.612 39.5476 115.974 40.2976C116.336 41.0433 116.517 41.9787 116.517 43.1037C116.517 44.1989 116.341 45.1236 115.987 45.8778C115.637 46.6278 115.16 47.1967 114.555 47.5845C113.954 47.968 113.281 48.1598 112.535 48.1598C112.007 48.1598 111.557 48.0724 111.186 47.8977C110.82 47.723 110.52 47.5036 110.285 47.2393C110.051 46.9709 109.872 46.7003 109.748 46.4276H109.665V51.6818H106.942ZM109.608 43.0909C109.608 43.6747 109.689 44.1839 109.85 44.6186C110.012 45.0533 110.247 45.392 110.554 45.6349C110.86 45.8736 111.233 45.9929 111.672 45.9929C112.115 45.9929 112.49 45.8714 112.797 45.6286C113.104 45.3814 113.336 45.0405 113.494 44.6058C113.656 44.1669 113.737 43.6619 113.737 43.0909C113.737 42.5241 113.658 42.0256 113.5 41.5952C113.343 41.1648 113.11 40.8281 112.804 40.5852C112.497 40.3423 112.12 40.2209 111.672 40.2209C111.229 40.2209 110.854 40.3381 110.547 40.5724C110.245 40.8068 110.012 41.1392 109.85 41.5696C109.689 42 109.608 42.5071 109.608 43.0909ZM129.651 38.674C129.6 38.1584 129.381 37.7578 128.993 37.4723C128.605 37.1868 128.079 37.044 127.414 37.044C126.963 37.044 126.581 37.108 126.27 37.2358C125.959 37.3594 125.72 37.532 125.554 37.7536C125.392 37.9751 125.311 38.2266 125.311 38.5078C125.303 38.7422 125.352 38.9467 125.458 39.1214C125.569 39.2962 125.72 39.4474 125.912 39.5753C126.104 39.6989 126.325 39.8075 126.577 39.9013C126.828 39.9908 127.097 40.0675 127.382 40.1314L128.558 40.4126C129.129 40.5405 129.654 40.7109 130.131 40.924C130.608 41.1371 131.021 41.3991 131.371 41.7102C131.72 42.0213 131.991 42.3878 132.183 42.8097C132.379 43.2315 132.479 43.7152 132.483 44.2607C132.479 45.0618 132.274 45.7564 131.869 46.3445C131.469 46.9283 130.889 47.3821 130.131 47.706C129.377 48.0256 128.467 48.1854 127.401 48.1854C126.345 48.1854 125.424 48.0234 124.64 47.6996C123.86 47.3757 123.251 46.8963 122.812 46.2614C122.377 45.6222 122.149 44.8317 122.128 43.8899H124.806C124.836 44.3288 124.962 44.6953 125.183 44.9893C125.409 45.2791 125.71 45.4986 126.085 45.6477C126.464 45.7926 126.892 45.8651 127.369 45.8651C127.838 45.8651 128.245 45.7969 128.59 45.6605C128.94 45.5241 129.21 45.3345 129.402 45.0916C129.594 44.8487 129.69 44.5696 129.69 44.2543C129.69 43.9602 129.602 43.7131 129.428 43.5128C129.257 43.3125 129.006 43.142 128.673 43.0014C128.345 42.8608 127.943 42.733 127.465 42.6179L126.04 42.2599C124.936 41.9915 124.065 41.5717 123.426 41.0007C122.786 40.4297 122.469 39.6605 122.473 38.6932C122.469 37.9006 122.68 37.2081 123.106 36.6158C123.536 36.0234 124.127 35.5611 124.877 35.2287C125.627 34.8963 126.479 34.7301 127.433 34.7301C128.405 34.7301 129.253 34.8963 129.977 35.2287C130.706 35.5611 131.273 36.0234 131.678 36.6158C132.083 37.2081 132.291 37.8942 132.304 38.674H129.651ZM139.516 38.1818V40.2273H133.603V38.1818H139.516ZM134.946 35.8295H137.669V44.983C137.669 45.2344 137.707 45.4304 137.784 45.571C137.86 45.7074 137.967 45.8033 138.103 45.8587C138.244 45.9141 138.406 45.9418 138.589 45.9418C138.717 45.9418 138.845 45.9311 138.973 45.9098C139.1 45.8842 139.199 45.8651 139.267 45.8523L139.695 47.8786C139.559 47.9212 139.367 47.9702 139.12 48.0256C138.873 48.0852 138.572 48.1214 138.218 48.1342C137.562 48.1598 136.987 48.0724 136.493 47.8722C136.002 47.6719 135.621 47.3608 135.348 46.9389C135.076 46.517 134.941 45.9844 134.946 45.3409V35.8295ZM145.62 48.1918C144.627 48.1918 143.769 47.9808 143.044 47.5589C142.324 47.1328 141.768 46.5405 141.376 45.782C140.984 45.0192 140.788 44.1349 140.788 43.1293C140.788 42.1151 140.984 41.2287 141.376 40.4702C141.768 39.7074 142.324 39.1151 143.044 38.6932C143.769 38.267 144.627 38.054 145.62 38.054C146.613 38.054 147.47 38.267 148.19 38.6932C148.914 39.1151 149.473 39.7074 149.865 40.4702C150.257 41.2287 150.453 42.1151 150.453 43.1293C150.453 44.1349 150.257 45.0192 149.865 45.782C149.473 46.5405 148.914 47.1328 148.19 47.5589C147.47 47.9808 146.613 48.1918 145.62 48.1918ZM145.633 46.0824C146.085 46.0824 146.462 45.9545 146.765 45.6989C147.067 45.4389 147.295 45.0852 147.449 44.6378C147.606 44.1903 147.685 43.6811 147.685 43.1101C147.685 42.5391 147.606 42.0298 147.449 41.5824C147.295 41.1349 147.067 40.7812 146.765 40.5213C146.462 40.2614 146.085 40.1314 145.633 40.1314C145.177 40.1314 144.794 40.2614 144.483 40.5213C144.176 40.7812 143.944 41.1349 143.786 41.5824C143.632 42.0298 143.556 42.5391 143.556 43.1101C143.556 43.6811 143.632 44.1903 143.786 44.6378C143.944 45.0852 144.176 45.4389 144.483 45.6989C144.794 45.9545 145.177 46.0824 145.633 46.0824ZM152.223 48V38.1818H154.863V39.8949H154.966C155.145 39.2855 155.445 38.8253 155.867 38.5142C156.289 38.1989 156.775 38.0412 157.324 38.0412C157.461 38.0412 157.608 38.0497 157.765 38.0668C157.923 38.0838 158.061 38.1072 158.181 38.1371V40.5533C158.053 40.5149 157.876 40.4808 157.65 40.451C157.424 40.4212 157.218 40.4062 157.03 40.4062C156.63 40.4062 156.272 40.4936 155.956 40.6683C155.645 40.8388 155.398 41.0774 155.215 41.3842C155.036 41.6911 154.946 42.0447 154.946 42.4453V48H152.223ZM163.606 48.1918C162.596 48.1918 161.727 47.9872 160.998 47.5781C160.274 47.1648 159.715 46.581 159.323 45.8267C158.931 45.0682 158.735 44.1712 158.735 43.1357C158.735 42.1257 158.931 41.2393 159.323 40.4766C159.715 39.7138 160.267 39.1193 160.979 38.6932C161.695 38.267 162.534 38.054 163.497 38.054C164.145 38.054 164.748 38.1584 165.306 38.3672C165.869 38.5717 166.359 38.8807 166.776 39.294C167.198 39.7074 167.526 40.2273 167.761 40.8537C167.995 41.4759 168.112 42.2045 168.112 43.0398V43.7876H159.822V42.1001H165.549C165.549 41.7081 165.464 41.3608 165.294 41.0582C165.123 40.7557 164.887 40.5192 164.584 40.3487C164.286 40.174 163.938 40.0866 163.542 40.0866C163.129 40.0866 162.762 40.1825 162.443 40.3743C162.127 40.5618 161.88 40.8153 161.701 41.1349C161.522 41.4503 161.431 41.8018 161.426 42.1896V43.794C161.426 44.2798 161.516 44.6996 161.695 45.0533C161.878 45.407 162.136 45.6797 162.468 45.8714C162.801 46.0632 163.195 46.1591 163.651 46.1591C163.953 46.1591 164.23 46.1165 164.482 46.0312C164.733 45.946 164.948 45.8182 165.127 45.6477C165.306 45.4773 165.443 45.2685 165.536 45.0213L168.055 45.1875C167.927 45.7926 167.665 46.321 167.269 46.7727C166.877 47.2202 166.369 47.5696 165.747 47.821C165.129 48.0682 164.416 48.1918 163.606 48.1918Z" fill="white"/>
<rect x="218.195" width="201.804" height="60" rx="5" fill="#393939"/>
<path d="M322.193 15C322.084 14.6652 321.94 14.3653 321.761 14.1001C321.585 13.8317 321.375 13.603 321.129 13.4141C320.887 13.2251 320.612 13.081 320.304 12.9815C319.996 12.8821 319.658 12.8324 319.29 12.8324C318.687 12.8324 318.138 12.9882 317.644 13.2997C317.15 13.6113 316.758 14.0703 316.466 14.6768C316.174 15.2834 316.028 16.0275 316.028 16.9091C316.028 17.7907 316.176 18.5348 316.471 19.1413C316.766 19.7479 317.165 20.2069 317.669 20.5185C318.173 20.83 318.74 20.9858 319.369 20.9858C319.953 20.9858 320.466 20.8615 320.911 20.6129C321.358 20.361 321.706 20.0064 321.955 19.549C322.206 19.0883 322.332 18.5464 322.332 17.9233L322.71 18.0028H319.648V16.9091H323.526V18.0028C323.526 18.8414 323.347 19.5705 322.989 20.1903C322.634 20.8101 322.143 21.2907 321.517 21.6321C320.894 21.9702 320.178 22.1392 319.369 22.1392C318.468 22.1392 317.676 21.9271 316.993 21.5028C316.313 21.0786 315.783 20.4754 315.402 19.6932C315.024 18.911 314.835 17.983 314.835 16.9091C314.835 16.1037 314.943 15.3795 315.158 14.7365C315.377 14.0902 315.685 13.54 316.083 13.0859C316.481 12.6319 316.951 12.2839 317.495 12.0419C318.039 11.8 318.637 11.679 319.29 11.679C319.827 11.679 320.327 11.7602 320.791 11.9226C321.259 12.0817 321.674 12.3087 322.039 12.6037C322.407 12.8954 322.714 13.245 322.959 13.6527C323.204 14.0571 323.373 14.5062 323.466 15H322.193ZM328.68 22.1591C327.944 22.1591 327.309 21.9967 326.776 21.6719C326.245 21.3438 325.836 20.8864 325.548 20.2997C325.263 19.7098 325.12 19.0237 325.12 18.2415C325.12 17.4593 325.263 16.7699 325.548 16.1733C325.836 15.5734 326.237 15.1061 326.751 14.7713C327.268 14.4332 327.871 14.2642 328.561 14.2642C328.958 14.2642 329.351 14.3305 329.739 14.4631C330.127 14.5956 330.48 14.8111 330.798 15.1094C331.116 15.4044 331.369 15.7955 331.558 16.2827C331.747 16.7699 331.842 17.3698 331.842 18.0824V18.5795H325.955V17.5653H330.649C330.649 17.1345 330.562 16.75 330.39 16.4119C330.221 16.0739 329.979 15.8071 329.664 15.6115C329.353 15.416 328.985 15.3182 328.561 15.3182C328.093 15.3182 327.689 15.4342 327.347 15.6662C327.009 15.8949 326.749 16.1932 326.567 16.5611C326.385 16.929 326.294 17.3234 326.294 17.7443V18.4205C326.294 18.9972 326.393 19.486 326.592 19.8871C326.794 20.2848 327.074 20.5881 327.432 20.7969C327.79 21.0024 328.206 21.1051 328.68 21.1051C328.988 21.1051 329.267 21.062 329.515 20.9759C329.767 20.8864 329.984 20.7538 330.166 20.5781C330.349 20.3991 330.49 20.1771 330.589 19.9119L331.722 20.2301C331.603 20.6146 331.403 20.9527 331.121 21.2443C330.839 21.5327 330.491 21.758 330.077 21.9205C329.663 22.0795 329.197 22.1591 328.68 22.1591ZM336.948 14.3636V15.358H332.99V14.3636H336.948ZM334.144 12.5341H335.317V19.8125C335.317 20.1439 335.365 20.3925 335.461 20.5582C335.561 20.7206 335.686 20.83 335.839 20.8864C335.995 20.9394 336.159 20.9659 336.331 20.9659C336.46 20.9659 336.566 20.9593 336.649 20.946C336.732 20.9295 336.798 20.9162 336.848 20.9062L337.087 21.9602C337.007 21.9901 336.896 22.0199 336.754 22.0497C336.611 22.0829 336.431 22.0994 336.212 22.0994C335.88 22.0994 335.556 22.0282 335.237 21.8857C334.923 21.7431 334.661 21.526 334.452 21.2344C334.246 20.9427 334.144 20.5748 334.144 20.1307V12.5341ZM344.042 11.8182V22H342.809V11.8182H344.042ZM349.676 14.3636V15.358H345.719V14.3636H349.676ZM346.872 12.5341H348.045V19.8125C348.045 20.1439 348.094 20.3925 348.19 20.5582C348.289 20.7206 348.415 20.83 348.567 20.8864C348.723 20.9394 348.887 20.9659 349.06 20.9659C349.189 20.9659 349.295 20.9593 349.378 20.946C349.461 20.9295 349.527 20.9162 349.577 20.9062L349.815 21.9602C349.736 21.9901 349.625 22.0199 349.482 22.0497C349.34 22.0829 349.159 22.0994 348.94 22.0994C348.609 22.0994 348.284 22.0282 347.966 21.8857C347.651 21.7431 347.389 21.526 347.18 21.2344C346.975 20.9427 346.872 20.5748 346.872 20.1307V12.5341ZM364.129 16.9091C364.129 17.983 363.935 18.911 363.547 19.6932C363.159 20.4754 362.627 21.0786 361.951 21.5028C361.275 21.9271 360.503 22.1392 359.634 22.1392C358.766 22.1392 357.994 21.9271 357.317 21.5028C356.641 21.0786 356.109 20.4754 355.722 19.6932C355.334 18.911 355.14 17.983 355.14 16.9091C355.14 15.8352 355.334 14.9072 355.722 14.125C356.109 13.3428 356.641 12.7396 357.317 12.3153C357.994 11.8911 358.766 11.679 359.634 11.679C360.503 11.679 361.275 11.8911 361.951 12.3153C362.627 12.7396 363.159 13.3428 363.547 14.125C363.935 14.9072 364.129 15.8352 364.129 16.9091ZM362.935 16.9091C362.935 16.0275 362.788 15.2834 362.493 14.6768C362.201 14.0703 361.805 13.6113 361.305 13.2997C360.808 12.9882 360.251 12.8324 359.634 12.8324C359.018 12.8324 358.459 12.9882 357.959 13.2997C357.462 13.6113 357.066 14.0703 356.771 14.6768C356.479 15.2834 356.333 16.0275 356.333 16.9091C356.333 17.7907 356.479 18.5348 356.771 19.1413C357.066 19.7479 357.462 20.2069 357.959 20.5185C358.459 20.83 359.018 20.9858 359.634 20.9858C360.251 20.9858 360.808 20.83 361.305 20.5185C361.805 20.2069 362.201 19.7479 362.493 19.1413C362.788 18.5348 362.935 17.7907 362.935 16.9091ZM367.216 17.4062V22H366.043V14.3636H367.176V15.5568H367.276C367.455 15.169 367.726 14.8575 368.091 14.6222C368.455 14.3835 368.926 14.2642 369.503 14.2642C370.02 14.2642 370.472 14.3703 370.86 14.5824C371.248 14.7912 371.549 15.1094 371.765 15.5369C371.98 15.9612 372.088 16.4981 372.088 17.1477V22H370.915V17.2273C370.915 16.6274 370.759 16.16 370.447 15.8253C370.136 15.4872 369.708 15.3182 369.165 15.3182C368.79 15.3182 368.455 15.3994 368.161 15.5618C367.869 15.7242 367.638 15.9612 367.469 16.2727C367.3 16.5843 367.216 16.9621 367.216 17.4062Z" fill="white"/>
<path d="M305.818 39.1406C305.729 38.8295 305.603 38.5547 305.441 38.3161C305.279 38.0732 305.081 37.8686 304.847 37.7024C304.616 37.532 304.352 37.402 304.054 37.3125C303.76 37.223 303.434 37.1783 303.076 37.1783C302.407 37.1783 301.819 37.3445 301.312 37.6768C300.809 38.0092 300.417 38.4929 300.136 39.1278C299.854 39.7585 299.714 40.5298 299.714 41.4418C299.714 42.3537 299.852 43.1293 300.129 43.7685C300.406 44.4077 300.798 44.8956 301.305 45.2322C301.812 45.5646 302.411 45.7308 303.102 45.7308C303.728 45.7308 304.263 45.62 304.706 45.3984C305.153 45.1726 305.494 44.8551 305.729 44.446C305.967 44.0369 306.087 43.5533 306.087 42.995L306.649 43.0781H303.274V40.9943H308.752V42.6435C308.752 43.794 308.509 44.7827 308.023 45.6094C307.538 46.4318 306.869 47.0668 306.016 47.5142C305.164 47.9574 304.188 48.179 303.089 48.179C301.862 48.179 300.783 47.9084 299.854 47.3672C298.925 46.8217 298.201 46.0483 297.681 45.0469C297.165 44.0412 296.908 42.848 296.908 41.4673C296.908 40.4062 297.061 39.4602 297.368 38.6293C297.679 37.794 298.114 37.0866 298.672 36.5071C299.23 35.9276 299.88 35.4865 300.621 35.1839C301.363 34.8814 302.166 34.7301 303.031 34.7301C303.773 34.7301 304.463 34.8388 305.102 35.0561C305.741 35.2692 306.308 35.5717 306.803 35.9638C307.301 36.3558 307.708 36.8224 308.023 37.3636C308.339 37.9006 308.541 38.4929 308.631 39.1406H305.818ZM315.216 48.1918C314.223 48.1918 313.365 47.9808 312.64 47.5589C311.92 47.1328 311.364 46.5405 310.972 45.782C310.58 45.0192 310.384 44.1349 310.384 43.1293C310.384 42.1151 310.58 41.2287 310.972 40.4702C311.364 39.7074 311.92 39.1151 312.64 38.6932C313.365 38.267 314.223 38.054 315.216 38.054C316.209 38.054 317.066 38.267 317.786 38.6932C318.51 39.1151 319.068 39.7074 319.46 40.4702C319.852 41.2287 320.048 42.1151 320.048 43.1293C320.048 44.1349 319.852 45.0192 319.46 45.782C319.068 46.5405 318.51 47.1328 317.786 47.5589C317.066 47.9808 316.209 48.1918 315.216 48.1918ZM315.229 46.0824C315.681 46.0824 316.058 45.9545 316.36 45.6989C316.663 45.4389 316.891 45.0852 317.044 44.6378C317.202 44.1903 317.281 43.6811 317.281 43.1101C317.281 42.5391 317.202 42.0298 317.044 41.5824C316.891 41.1349 316.663 40.7812 316.36 40.5213C316.058 40.2614 315.681 40.1314 315.229 40.1314C314.773 40.1314 314.389 40.2614 314.078 40.5213C313.771 40.7812 313.539 41.1349 313.382 41.5824C313.228 42.0298 313.151 42.5391 313.151 43.1101C313.151 43.6811 313.228 44.1903 313.382 44.6378C313.539 45.0852 313.771 45.4389 314.078 45.6989C314.389 45.9545 314.773 46.0824 315.229 46.0824ZM326.255 48.1918C325.262 48.1918 324.404 47.9808 323.679 47.5589C322.959 47.1328 322.403 46.5405 322.011 45.782C321.619 45.0192 321.423 44.1349 321.423 43.1293C321.423 42.1151 321.619 41.2287 322.011 40.4702C322.403 39.7074 322.959 39.1151 323.679 38.6932C324.404 38.267 325.262 38.054 326.255 38.054C327.248 38.054 328.105 38.267 328.825 38.6932C329.549 39.1151 330.107 39.7074 330.499 40.4702C330.892 41.2287 331.088 42.1151 331.088 43.1293C331.088 44.1349 330.892 45.0192 330.499 45.782C330.107 46.5405 329.549 47.1328 328.825 47.5589C328.105 47.9808 327.248 48.1918 326.255 48.1918ZM326.268 46.0824C326.72 46.0824 327.097 45.9545 327.399 45.6989C327.702 45.4389 327.93 45.0852 328.083 44.6378C328.241 44.1903 328.32 43.6811 328.32 43.1101C328.32 42.5391 328.241 42.0298 328.083 41.5824C327.93 41.1349 327.702 40.7812 327.399 40.5213C327.097 40.2614 326.72 40.1314 326.268 40.1314C325.812 40.1314 325.428 40.2614 325.117 40.5213C324.811 40.7812 324.578 41.1349 324.421 41.5824C324.267 42.0298 324.191 42.5391 324.191 43.1101C324.191 43.6811 324.267 44.1903 324.421 44.6378C324.578 45.0852 324.811 45.4389 325.117 45.6989C325.428 45.9545 325.812 46.0824 326.268 46.0824ZM337.281 51.8864C336.399 51.8864 335.643 51.7649 335.012 51.522C334.386 51.2834 333.887 50.9574 333.517 50.544C333.146 50.1307 332.905 49.6662 332.794 49.1506L335.313 48.8118C335.389 49.0078 335.511 49.1911 335.677 49.3615C335.843 49.532 336.063 49.6683 336.335 49.7706C336.612 49.8771 336.949 49.9304 337.345 49.9304C337.938 49.9304 338.426 49.7855 338.809 49.4957C339.197 49.2102 339.391 48.7308 339.391 48.0575V46.2614H339.276C339.156 46.5341 338.977 46.7919 338.739 47.0348C338.5 47.2777 338.193 47.4759 337.818 47.6293C337.443 47.7827 336.996 47.8594 336.476 47.8594C335.739 47.8594 335.068 47.6889 334.463 47.348C333.862 47.0028 333.382 46.4766 333.024 45.7692C332.671 45.0575 332.494 44.1584 332.494 43.0717C332.494 41.9595 332.675 41.0305 333.037 40.2848C333.399 39.5391 333.881 38.9808 334.482 38.6101C335.087 38.2393 335.749 38.054 336.47 38.054C337.019 38.054 337.48 38.1477 337.85 38.3352C338.221 38.5185 338.519 38.7486 338.745 39.0256C338.975 39.2983 339.152 39.5668 339.276 39.831H339.378V38.1818H342.082V48.0959C342.082 48.9311 341.877 49.63 341.468 50.1925C341.059 50.755 340.492 51.1768 339.768 51.4581C339.048 51.7436 338.219 51.8864 337.281 51.8864ZM337.339 45.8139C337.778 45.8139 338.149 45.7053 338.451 45.4879C338.758 45.2663 338.992 44.951 339.154 44.5419C339.32 44.1286 339.404 43.6342 339.404 43.0589C339.404 42.4837 339.323 41.9851 339.161 41.5632C338.999 41.1371 338.764 40.8068 338.458 40.5724C338.151 40.3381 337.778 40.2209 337.339 40.2209C336.892 40.2209 336.514 40.3423 336.208 40.5852C335.901 40.8239 335.669 41.1562 335.511 41.5824C335.353 42.0085 335.274 42.5007 335.274 43.0589C335.274 43.6257 335.353 44.1158 335.511 44.5291C335.673 44.9382 335.905 45.2557 336.208 45.4815C336.514 45.7031 336.892 45.8139 337.339 45.8139ZM346.972 34.9091V48H344.249V34.9091H346.972ZM353.627 48.1918C352.618 48.1918 351.748 47.9872 351.02 47.5781C350.295 47.1648 349.737 46.581 349.345 45.8267C348.953 45.0682 348.757 44.1712 348.757 43.1357C348.757 42.1257 348.953 41.2393 349.345 40.4766C349.737 39.7138 350.289 39.1193 351 38.6932C351.716 38.267 352.556 38.054 353.519 38.054C354.167 38.054 354.77 38.1584 355.328 38.3672C355.89 38.5717 356.38 38.8807 356.798 39.294C357.22 39.7074 357.548 40.2273 357.782 40.8537C358.017 41.4759 358.134 42.2045 358.134 43.0398V43.7876H349.843V42.1001H355.571C355.571 41.7081 355.485 41.3608 355.315 41.0582C355.145 40.7557 354.908 40.5192 354.605 40.3487C354.307 40.174 353.96 40.0866 353.564 40.0866C353.15 40.0866 352.784 40.1825 352.464 40.3743C352.149 40.5618 351.902 40.8153 351.723 41.1349C351.544 41.4503 351.452 41.8018 351.448 42.1896V43.794C351.448 44.2798 351.537 44.6996 351.716 45.0533C351.9 45.407 352.157 45.6797 352.49 45.8714C352.822 46.0632 353.216 46.1591 353.672 46.1591C353.975 46.1591 354.252 46.1165 354.503 46.0312C354.755 45.946 354.97 45.8182 355.149 45.6477C355.328 45.4773 355.464 45.2685 355.558 45.0213L358.076 45.1875C357.949 45.7926 357.686 46.321 357.29 46.7727C356.898 47.2202 356.391 47.5696 355.769 47.821C355.151 48.0682 354.437 48.1918 353.627 48.1918ZM364.128 48V34.9091H369.293C370.286 34.9091 371.132 35.0987 371.83 35.478C372.529 35.853 373.062 36.375 373.428 37.044C373.799 37.7088 373.985 38.4759 373.985 39.3452C373.985 40.2145 373.797 40.9815 373.422 41.6463C373.047 42.3111 372.504 42.8288 371.792 43.1996C371.085 43.5703 370.228 43.7557 369.222 43.7557H365.931V41.5376H368.775C369.308 41.5376 369.747 41.446 370.092 41.2628C370.441 41.0753 370.701 40.8175 370.872 40.4893C371.046 40.157 371.134 39.7756 371.134 39.3452C371.134 38.9105 371.046 38.5312 370.872 38.2074C370.701 37.8793 370.441 37.6257 370.092 37.4467C369.742 37.2635 369.299 37.1719 368.762 37.1719H366.896V48H364.128ZM378.454 34.9091V48H375.731V34.9091H378.454ZM383.435 48.1854C382.809 48.1854 382.251 48.0767 381.76 47.8594C381.27 47.6378 380.883 47.3118 380.597 46.8814C380.316 46.4467 380.175 45.9055 380.175 45.2578C380.175 44.7124 380.275 44.2543 380.476 43.8835C380.676 43.5128 380.949 43.2145 381.294 42.9886C381.639 42.7628 382.031 42.5923 382.47 42.4773C382.913 42.3622 383.378 42.2812 383.863 42.2344C384.434 42.1747 384.895 42.1193 385.244 42.0682C385.594 42.0128 385.847 41.9318 386.005 41.8253C386.162 41.7187 386.241 41.5611 386.241 41.3523V41.3139C386.241 40.9091 386.113 40.5959 385.858 40.3743C385.606 40.1527 385.248 40.0419 384.784 40.0419C384.294 40.0419 383.904 40.1506 383.614 40.3679C383.324 40.581 383.133 40.8494 383.039 41.1733L380.52 40.9688C380.648 40.3722 380.9 39.8565 381.275 39.4219C381.65 38.983 382.133 38.6463 382.726 38.4119C383.322 38.1733 384.013 38.054 384.797 38.054C385.342 38.054 385.864 38.1179 386.363 38.2457C386.866 38.3736 387.311 38.5717 387.699 38.8402C388.091 39.1087 388.4 39.4538 388.626 39.8757C388.851 40.2933 388.964 40.794 388.964 41.3778V48H386.382V46.6385H386.305C386.148 46.9453 385.937 47.2159 385.672 47.4503C385.408 47.6804 385.091 47.8615 384.72 47.9936C384.349 48.1214 383.921 48.1854 383.435 48.1854ZM384.215 46.3061C384.616 46.3061 384.969 46.2273 385.276 46.0696C385.583 45.9077 385.824 45.6903 385.998 45.4176C386.173 45.1449 386.26 44.8359 386.26 44.4908V43.4489C386.175 43.5043 386.058 43.5554 385.909 43.6023C385.764 43.6449 385.6 43.6854 385.417 43.7237C385.233 43.7578 385.05 43.7898 384.867 43.8196C384.684 43.8452 384.518 43.8686 384.368 43.8899C384.049 43.9368 383.77 44.0114 383.531 44.1136C383.292 44.2159 383.107 44.3544 382.975 44.5291C382.843 44.6996 382.777 44.9126 382.777 45.1683C382.777 45.5391 382.911 45.8224 383.18 46.0185C383.452 46.2102 383.797 46.3061 384.215 46.3061ZM392.406 51.6818C392.061 51.6818 391.737 51.6541 391.435 51.5987C391.137 51.5476 390.889 51.4815 390.693 51.4006L391.307 49.3679C391.627 49.4659 391.914 49.5192 392.17 49.5277C392.43 49.5362 392.654 49.4766 392.841 49.3487C393.033 49.2209 393.188 49.0036 393.308 48.6967L393.468 48.2812L389.945 38.1818H392.809L394.842 45.392H394.944L396.996 38.1818H399.879L396.063 49.0611C395.879 49.5895 395.63 50.0497 395.315 50.4418C395.004 50.8381 394.61 51.1428 394.132 51.3558C393.655 51.5732 393.08 51.6818 392.406 51.6818Z" fill="white"/>
<path d="M54.4941 31.1572C54.4746 27.8271 55.9834 25.3174 59.0303 23.4668C57.3262 21.0254 54.748 19.6826 51.3496 19.4238C48.1318 19.1699 44.6113 21.2988 43.3223 21.2988C41.96 21.2988 38.8447 19.5117 36.3936 19.5117C31.335 19.5898 25.959 23.5449 25.959 31.5918C25.959 33.9697 26.3936 36.4258 27.2627 38.9551C28.4248 42.2852 32.6143 50.4443 36.9844 50.3125C39.2695 50.2588 40.8857 48.6914 43.8594 48.6914C46.7451 48.6914 48.2393 50.3125 50.7881 50.3125C55.1973 50.249 58.9863 42.832 60.0898 39.4922C54.1768 36.7041 54.4941 31.3281 54.4941 31.1572ZM49.3623 16.2646C51.8379 13.3252 51.6133 10.6494 51.54 9.6875C49.3525 9.81445 46.8232 11.1768 45.3828 12.8516C43.7959 14.6484 42.8633 16.8701 43.0635 19.375C45.4268 19.5557 47.585 18.3398 49.3623 16.2646Z" fill="white"/>
<path d="M271.501 36.113C276.572 33.5111 280.417 31.5285 280.748 31.3743C281.808 30.8476 282.903 29.4534 280.748 28.3705C280.053 28.0299 276.307 26.1091 271.501 23.6318L264.839 29.9187L271.501 36.1129V36.113Z" fill="#FFD900"/>
<path d="M264.839 29.9189L243.626 49.896C244.124 49.9576 244.686 49.8343 245.349 49.4938C246.74 48.7822 261.491 41.2553 271.501 36.1147L264.839 29.9189Z" fill="#F43249"/>
<path d="M264.839 29.9188L271.501 23.6629C271.501 23.6629 246.841 11.0876 245.349 10.3452C244.786 10.0341 244.156 9.94173 243.593 10.0341L264.839 29.9188Z" fill="#00EE76"/>
<path d="M264.839 29.9189L243.593 10.0342C242.731 10.2205 242.002 10.9323 242.002 12.388V47.5421C242.002 48.8745 242.566 49.8342 243.626 49.9267L264.839 29.9189Z" fill="#00D3FF"/>
</svg>
