<svg width="128" height="40" viewBox="0 0 128 40" fill="none" xmlns="http://www.w3.org/2000/svg">
<path d="M37.0063 23.9914C37.6362 21.4651 37.6592 18.8255 37.0735 16.2886C36.4878 13.7517 35.31 11.3894 33.6364 9.39485L20.9977 20L37.0063 23.9914Z" fill="#FD5308"/>
<path d="M5.95087 19.7982C5.95087 22.4019 6.56708 24.9686 7.74912 27.2884C8.93115 29.6083 10.6455 31.6155 12.7519 33.1459L22.4496 19.7982L5.95087 19.7982Z" fill="#0075FF"/>
<path d="M18.7642 27.874V13.3286H24.5881C25.6581 13.3286 26.5507 13.4872 27.2656 13.8044C27.9806 14.1217 28.518 14.562 28.8778 15.1254C29.2377 15.6842 29.4176 16.3281 29.4176 17.0573C29.4176 17.6254 29.304 18.125 29.0767 18.5558C28.8494 18.982 28.5369 19.3324 28.1392 19.607C27.7462 19.8769 27.2964 20.0686 26.7898 20.1823V20.3243C27.3438 20.348 27.8622 20.5042 28.3452 20.7931C28.8329 21.0819 29.2282 21.4867 29.5312 22.0075C29.8343 22.5236 29.9858 23.1392 29.9858 23.8541C29.9858 24.6259 29.794 25.3148 29.4105 25.9209C29.0317 26.5222 28.4706 26.9981 27.7273 27.3485C26.9839 27.6988 26.0677 27.874 24.9787 27.874H18.7642ZM21.8395 25.3598H24.3466C25.2036 25.3598 25.8286 25.1965 26.2216 24.8698C26.6146 24.5383 26.8111 24.098 26.8111 23.5487C26.8111 23.1463 26.714 22.7912 26.5199 22.4834C26.3258 22.1756 26.0488 21.9342 25.6889 21.759C25.3338 21.5838 24.91 21.4962 24.4176 21.4962H21.8395V25.3598ZM21.8395 19.4152H24.1193C24.5407 19.4152 24.9148 19.3418 25.2415 19.195C25.5729 19.0435 25.8333 18.8305 26.0227 18.5558C26.2169 18.2812 26.3139 17.9521 26.3139 17.5686C26.3139 17.0431 26.1269 16.6193 25.7528 16.2973C25.3835 15.9753 24.858 15.8144 24.1761 15.8144H21.8395V19.4152Z" fill="#393939"/>
<path d="M46.322 28V10.5455H53.6004C54.9072 10.5455 56.001 10.7301 56.8817 11.0994C57.768 11.4687 58.4328 11.9858 58.876 12.6506C59.3248 13.3153 59.5493 14.0852 59.5493 14.9602C59.5493 15.625 59.4101 16.2188 59.1317 16.7415C58.8533 17.2585 58.4697 17.6875 57.9811 18.0284C57.4925 18.3693 56.9271 18.608 56.2851 18.7443V18.9148C56.9896 18.9489 57.6402 19.1392 58.2368 19.4858C58.839 19.8324 59.322 20.3153 59.6856 20.9347C60.0493 21.5483 60.2311 22.2756 60.2311 23.1165C60.2311 24.054 59.9925 24.892 59.5152 25.6307C59.0379 26.3636 58.3476 26.9432 57.4442 27.3693C56.5407 27.7898 55.4442 28 54.1544 28H46.322ZM50.5407 24.5994H53.1487C54.0635 24.5994 54.7368 24.4261 55.1686 24.0795C55.6061 23.733 55.8248 23.25 55.8248 22.6307C55.8248 22.1818 55.7197 21.7955 55.5095 21.4716C55.2993 21.142 55.001 20.8892 54.6146 20.7131C54.2282 20.5312 53.7652 20.4403 53.2254 20.4403H50.5407V24.5994ZM50.5407 17.7216H52.876C53.3362 17.7216 53.7453 17.6449 54.1032 17.4915C54.4612 17.3381 54.7396 17.1165 54.9385 16.8267C55.143 16.5369 55.2453 16.1875 55.2453 15.7784C55.2453 15.1932 55.0379 14.733 54.6231 14.3977C54.2084 14.0625 53.6487 13.8949 52.9442 13.8949H50.5407V17.7216ZM68.3703 28.2472C66.9953 28.2472 65.8135 27.9659 64.8248 27.4034C63.8419 26.8352 63.0834 26.0455 62.5493 25.0341C62.0209 24.017 61.7567 22.8381 61.7567 21.4972C61.7567 20.1506 62.0209 18.9716 62.5493 17.9602C63.0834 16.9432 63.8419 16.1534 64.8248 15.5909C65.8135 15.0227 66.9953 14.7386 68.3703 14.7386C69.7453 14.7386 70.9243 15.0227 71.9072 15.5909C72.8959 16.1534 73.6544 16.9432 74.1828 17.9602C74.7169 18.9716 74.9839 20.1506 74.9839 21.4972C74.9839 22.8381 74.7169 24.017 74.1828 25.0341C73.6544 26.0455 72.8959 26.8352 71.9072 27.4034C70.9243 27.9659 69.7453 28.2472 68.3703 28.2472ZM68.3959 25.1023C68.8959 25.1023 69.3192 24.9489 69.6657 24.642C70.0123 24.3352 70.2765 23.9091 70.4584 23.3636C70.6459 22.8182 70.7396 22.1875 70.7396 21.4716C70.7396 20.7443 70.6459 20.108 70.4584 19.5625C70.2765 19.017 70.0123 18.5909 69.6657 18.2841C69.3192 17.9773 68.8959 17.8239 68.3959 17.8239C67.8788 17.8239 67.4413 17.9773 67.0834 18.2841C66.7311 18.5909 66.4612 19.017 66.2737 19.5625C66.0919 20.108 66.001 20.7443 66.001 21.4716C66.001 22.1875 66.0919 22.8182 66.2737 23.3636C66.4612 23.9091 66.7311 24.3352 67.0834 24.642C67.4413 24.9489 67.8788 25.1023 68.3959 25.1023ZM83.2297 28.2472C81.849 28.2472 80.6643 27.9631 79.6757 27.3949C78.6927 26.8267 77.9371 26.0369 77.4086 25.0256C76.8802 24.0085 76.616 22.8324 76.616 21.4972C76.616 20.1562 76.8802 18.9801 77.4086 17.9688C77.9427 16.9517 78.7013 16.1591 79.6842 15.5909C80.6729 15.0227 81.8518 14.7386 83.2211 14.7386C84.4314 14.7386 85.4854 14.9574 86.3831 15.3949C87.2865 15.8324 87.991 16.4517 88.4967 17.2528C89.0081 18.0483 89.278 18.983 89.3064 20.0568H85.4115C85.3319 19.3864 85.1047 18.8608 84.7297 18.4801C84.3604 18.0994 83.8774 17.9091 83.2808 17.9091C82.7979 17.9091 82.3746 18.0455 82.0109 18.3182C81.6473 18.5852 81.3632 18.983 81.1586 19.5114C80.9598 20.0341 80.8604 20.6818 80.8604 21.4545C80.8604 22.2273 80.9598 22.8807 81.1586 23.4148C81.3632 23.9432 81.6473 24.3437 82.0109 24.6165C82.3746 24.8835 82.7979 25.017 83.2808 25.017C83.6672 25.017 84.0081 24.9347 84.3035 24.7699C84.6047 24.6051 84.8518 24.3636 85.045 24.0455C85.2382 23.7216 85.3604 23.3295 85.4115 22.8693H89.3064C89.2666 23.9489 88.9967 24.892 88.4967 25.6989C88.0024 26.5057 87.3064 27.1335 86.4086 27.5824C85.5166 28.0256 84.4569 28.2472 83.2297 28.2472ZM97.55 28.2472C96.175 28.2472 94.9932 27.9659 94.0045 27.4034C93.0216 26.8352 92.2631 26.0455 91.729 25.0341C91.2006 24.017 90.9363 22.8381 90.9363 21.4972C90.9363 20.1506 91.2006 18.9716 91.729 17.9602C92.2631 16.9432 93.0216 16.1534 94.0045 15.5909C94.9932 15.0227 96.175 14.7386 97.55 14.7386C98.925 14.7386 100.104 15.0227 101.087 15.5909C102.076 16.1534 102.834 16.9432 103.362 17.9602C103.897 18.9716 104.164 20.1506 104.164 21.4972C104.164 22.8381 103.897 24.017 103.362 25.0341C102.834 26.0455 102.076 26.8352 101.087 27.4034C100.104 27.9659 98.925 28.2472 97.55 28.2472ZM97.5756 25.1023C98.0756 25.1023 98.4988 24.9489 98.8454 24.642C99.192 24.3352 99.4562 23.9091 99.6381 23.3636C99.8256 22.8182 99.9193 22.1875 99.9193 21.4716C99.9193 20.7443 99.8256 20.108 99.6381 19.5625C99.4562 19.017 99.192 18.5909 98.8454 18.2841C98.4988 17.9773 98.0756 17.8239 97.5756 17.8239C97.0585 17.8239 96.621 17.9773 96.2631 18.2841C95.9108 18.5909 95.6409 19.017 95.4534 19.5625C95.2716 20.108 95.1807 20.7443 95.1807 21.4716C95.1807 22.1875 95.2716 22.8182 95.4534 23.3636C95.6409 23.9091 95.9108 24.3352 96.2631 24.642C96.621 24.9489 97.0585 25.1023 97.5756 25.1023ZM106.299 28V14.9091H110.466V28H106.299ZM108.387 13.3835C107.801 13.3835 107.299 13.1903 106.878 12.804C106.458 12.4119 106.247 11.9403 106.247 11.3892C106.247 10.8437 106.458 10.3778 106.878 9.99148C107.299 9.59943 107.801 9.40341 108.387 9.40341C108.978 9.40341 109.48 9.59943 109.895 9.99148C110.316 10.3778 110.526 10.8437 110.526 11.3892C110.526 11.9403 110.316 12.4119 109.895 12.804C109.48 13.1903 108.978 13.3835 108.387 13.3835ZM117.286 20.5341V28H113.119V14.9091H117.082V17.3125H117.227C117.517 16.5114 118.011 15.8835 118.71 15.429C119.409 14.9688 120.241 14.7386 121.207 14.7386C122.127 14.7386 122.926 14.946 123.602 15.3608C124.284 15.7699 124.812 16.3437 125.187 17.0824C125.568 17.8153 125.755 18.6733 125.75 19.6562V28H121.582V20.4744C121.588 19.7472 121.403 19.179 121.028 18.7699C120.659 18.3608 120.144 18.1562 119.485 18.1562C119.048 18.1562 118.661 18.2528 118.326 18.446C117.997 18.6335 117.741 18.9034 117.559 19.2557C117.383 19.608 117.292 20.0341 117.286 20.5341Z" fill="#393939"/>
</svg>
