<svg width="24" height="18" viewBox="0 0 24 18" fill="none" xmlns="http://www.w3.org/2000/svg">
<path d="M23.4996 3.50708C23.3637 3.02231 23.099 2.58342 22.7336 2.23708C22.3579 1.88008 21.8974 1.62471 21.3956 1.49508C19.5176 1.00008 11.9936 1.00008 11.9936 1.00008C8.85697 0.964389 5.72107 1.12135 2.60364 1.47008C2.10183 1.60929 1.6422 1.87036 1.26564 2.23008C0.89564 2.58608 0.62764 3.02508 0.48764 3.50608C0.151334 5.31782 -0.0120674 7.15742 -0.00035938 9.00008C-0.0123594 10.8411 0.150641 12.6801 0.48764 14.4941C0.62464 14.9731 0.89164 15.4101 1.26264 15.7631C1.63364 16.1161 2.09564 16.3711 2.60364 16.5061C4.50664 17.0001 11.9936 17.0001 11.9936 17.0001C15.1343 17.0358 18.2742 16.8789 21.3956 16.5301C21.8974 16.4004 22.3579 16.1451 22.7336 15.7881C23.0989 15.4418 23.3633 15.0029 23.4986 14.5181C23.8437 12.707 24.0115 10.8667 23.9996 9.02308C24.0256 7.17168 23.858 5.32264 23.4996 3.50608V3.50708ZM9.60164 12.4241V5.57708L15.8616 9.00108L9.60164 12.4241Z" fill="white"/>
</svg>
