<svg width="32" height="35" viewBox="0 0 32 35" fill="none" xmlns="http://www.w3.org/2000/svg">
<path d="M14.7692 4.77273V22.2727C14.7692 23.9962 14.5096 25.641 13.9904 27.207C13.4712 28.7731 12.7693 30.1278 11.8848 31.2713C11.0002 32.4148 9.95221 33.3221 8.74075 33.9933C7.5293 34.6644 6.25695 35 4.92371 35H3.69303C3.35972 35 3.07128 34.8426 2.8277 34.5277C2.58413 34.2128 2.46234 33.84 2.46234 33.4091V30.2273C2.46234 29.7964 2.58413 29.4235 2.8277 29.1087C3.07128 28.7938 3.35972 28.6364 3.69303 28.6364H4.92371C6.28259 28.6364 7.44277 28.0149 8.40424 26.772C9.36571 25.5291 9.84645 24.0294 9.84645 22.2727V21.4773C9.84645 20.8144 9.66697 20.2509 9.30802 19.7869C8.94907 19.3229 8.51321 19.0909 8.00042 19.0909H3.69303C2.66746 19.0909 1.79572 18.6269 1.07782 17.6989C0.359926 16.7708 0.000976562 15.6439 0.000976562 14.3182V4.77273C0.000976562 3.44697 0.359926 2.32008 1.07782 1.39205C1.79572 0.464015 2.66746 0 3.69303 0H11.0771C12.1027 0 12.9744 0.464015 13.6923 1.39205C14.4102 2.32008 14.7692 3.44697 14.7692 4.77273ZM31.9988 4.77273V22.2727C31.9988 23.9962 31.7392 25.641 31.22 27.207C30.7008 28.7731 29.9989 30.1278 29.1143 31.2713C28.2298 32.4148 27.1818 33.3221 25.9703 33.9933C24.7589 34.6644 23.4865 35 22.1533 35H20.9226C20.5893 35 20.3008 34.8426 20.0573 34.5277C19.8137 34.2128 19.6919 33.84 19.6919 33.4091V30.2273C19.6919 29.7964 19.8137 29.4235 20.0573 29.1087C20.3008 28.7938 20.5893 28.6364 20.9226 28.6364H22.1533C23.5122 28.6364 24.6723 28.0149 25.6338 26.772C26.5953 25.5291 27.076 24.0294 27.076 22.2727V21.4773C27.076 20.8144 26.8965 20.2509 26.5376 19.7869C26.1786 19.3229 25.7428 19.0909 25.23 19.0909H20.9226C19.897 19.0909 19.0253 18.6269 18.3074 17.6989C17.5895 16.7708 17.2305 15.6439 17.2305 14.3182V4.77273C17.2305 3.44697 17.5895 2.32008 18.3074 1.39205C19.0253 0.464015 19.897 0 20.9226 0H28.3067C29.3323 0 30.204 0.464015 30.9219 1.39205C31.6398 2.32008 31.9988 3.44697 31.9988 4.77273Z" fill="#0075FF"/>
</svg>
