<svg width="22" height="22" viewBox="0 0 22 22" fill="none" xmlns="http://www.w3.org/2000/svg">
<path fill-rule="evenodd" clip-rule="evenodd" d="M8.33726 21.6705C14.2314 23.1399 20.2008 19.553 21.6702 13.6606C23.1396 7.76738 19.5518 1.79805 13.6576 0.329546C7.76709 -1.14079 1.79776 2.44705 0.329256 8.34121C-1.14016 14.2335 2.44676 20.2029 8.33817 21.6714L8.33726 21.6705ZM12.2624 6.0688C13.8703 6.18246 15.1499 6.65363 15.3177 8.12396C15.4423 9.20013 15.0023 9.85555 14.2883 10.235C15.4799 10.499 16.2362 11.1911 16.117 12.7751C15.9694 14.7414 14.5147 15.2941 12.4265 15.45L12.4613 17.5125L11.2183 17.5354L11.1826 15.5004C10.8608 15.5059 10.5308 15.5095 10.1889 15.5077L10.2256 17.5519L8.98259 17.5739L8.94592 15.5077L8.59484 15.5105C8.41701 15.5114 8.23734 15.5123 8.05767 15.516L6.43884 15.5435L6.65976 14.0548C6.65976 14.0548 7.58009 14.053 7.56359 14.0392C7.91559 14.0319 8.00451 13.778 8.02376 13.6185L7.96784 10.3579L8.05676 10.356H8.09892C8.05511 10.351 8.01102 10.3489 7.96692 10.3496L7.92659 8.0213C7.87434 7.77013 7.70567 7.48046 7.20242 7.48963C7.21617 7.47129 6.29859 7.50521 6.29859 7.50521L6.27476 6.17788L7.99076 6.14855V6.15496C8.24834 6.15038 8.51326 6.14121 8.78184 6.13113L8.74701 4.08788L9.99001 4.0668L10.0248 6.0688C10.3567 6.05688 10.6903 6.04405 11.0176 6.03855L10.9828 4.04938L12.2267 4.02738L12.2624 6.07063V6.0688Z" fill="#0075FF"/>
</svg>
