<svg width="25" height="24" viewBox="0 0 25 24" fill="none" xmlns="http://www.w3.org/2000/svg">
<path d="M14.4375 23.25H10.5625C10.0486 23.25 9.55583 23.0525 9.19248 22.7008C8.82913 22.3492 8.625 21.8723 8.625 21.375V14.2594L1.44656 7.3125C1.08271 6.96248 0.877163 6.4871 0.875 5.99063V2.625C0.875 2.12772 1.07913 1.65081 1.44248 1.29917C1.80583 0.947544 2.29864 0.75 2.8125 0.75H22.1875C22.7014 0.75 23.1942 0.947544 23.5575 1.29917C23.9209 1.65081 24.125 2.12772 24.125 2.625V5.99063C24.1228 6.4871 23.9173 6.96248 23.5534 7.3125L16.375 14.2594V21.375C16.375 21.8723 16.1709 22.3492 15.8075 22.7008C15.4442 23.0525 14.9514 23.25 14.4375 23.25ZM2.8125 2.625V5.99063L10.5625 13.4906V21.375H14.4375V13.4906L22.1875 5.99063V2.625H2.8125Z" fill="#393939"/>
</svg>
