<svg width="24" height="22" viewBox="0 0 24 22" fill="none" xmlns="http://www.w3.org/2000/svg">
<path d="M12 8.49969C11.4349 8.49987 10.8825 8.64667 10.4128 8.92152C9.94298 9.19637 9.57689 9.58693 9.36078 10.0438C9.14466 10.5007 9.08823 11.0034 9.19861 11.4884C9.30899 11.9733 9.58122 12.4187 9.98089 12.7683C10.3806 13.1179 10.8897 13.3559 11.444 13.4523C11.9983 13.5487 12.5728 13.4992 13.0948 13.3099C13.6169 13.1206 14.0631 12.8002 14.3771 12.389C14.691 11.9778 14.8586 11.4945 14.8586 11C14.858 10.3369 14.5566 9.70105 14.0206 9.23223C13.4846 8.76341 12.7579 8.49994 12 8.49969ZM18.6809 6.57781C18.5354 6.25524 18.3158 5.96226 18.0355 5.71705C17.7553 5.47184 17.4204 5.27963 17.0518 5.15234C15.9268 4.76375 13.2482 4.85094 12 4.85094C10.7518 4.85094 8.07589 4.76047 6.94768 5.15234C6.57902 5.27963 6.24419 5.47184 5.96395 5.71705C5.68371 5.96226 5.46404 6.25524 5.31857 6.57781C4.875 7.56219 4.97411 9.90828 4.97411 10.9995C4.97411 12.0908 4.875 14.4341 5.32071 15.4217C5.46618 15.7443 5.68585 16.0373 5.96609 16.2825C6.24633 16.5277 6.58117 16.7199 6.94982 16.8472C8.07482 17.2358 10.7534 17.1486 12.0021 17.1486C13.2509 17.1486 15.9257 17.2391 17.0539 16.8472C17.4226 16.7199 17.7574 16.5277 18.0377 16.2825C18.3179 16.0373 18.5376 15.7443 18.683 15.4217C19.1304 14.4373 19.0275 12.0913 19.0275 11C19.0275 9.90875 19.1304 7.56594 18.683 6.57828L18.6809 6.57781ZM12 14.8438C11.1312 14.8438 10.2819 14.6183 9.55946 14.196C8.83706 13.7736 8.27401 13.1733 7.94153 12.4709C7.60904 11.7686 7.52205 10.9957 7.69155 10.2501C7.86105 9.50451 8.27943 8.81962 8.89378 8.28206C9.50813 7.7445 10.2909 7.37842 11.143 7.23011C11.9951 7.08179 12.8784 7.15791 13.6811 7.44884C14.4838 7.73976 15.1698 8.23243 15.6525 8.86453C16.1352 9.49663 16.3929 10.2398 16.3929 11C16.3936 11.5049 16.2804 12.005 16.0599 12.4717C15.8394 12.9383 15.5158 13.3623 15.1078 13.7193C14.6997 14.0764 14.2152 14.3595 13.6819 14.5524C13.1486 14.7454 12.5771 14.8444 12 14.8438ZM16.5739 7.89219C16.3711 7.89228 16.1728 7.83974 16.0041 7.74121C15.8354 7.64268 15.7039 7.5026 15.6262 7.33866C15.5486 7.17473 15.5282 6.99432 15.5677 6.82026C15.6072 6.64619 15.7048 6.48628 15.8482 6.36076C15.9915 6.23524 16.1742 6.14974 16.3732 6.11509C16.5721 6.08043 16.7783 6.09817 16.9657 6.16606C17.153 6.23395 17.3132 6.34895 17.4259 6.4965C17.5386 6.64405 17.5988 6.81753 17.5988 6.995C17.5993 7.11285 17.5733 7.22964 17.5221 7.33866C17.471 7.44769 17.3958 7.54681 17.3008 7.63034C17.2058 7.71387 17.0928 7.78016 16.9685 7.82542C16.8441 7.87067 16.7108 7.894 16.5761 7.89406L16.5739 7.89219ZM21.4286 0.5H2.57143C1.88944 0.5 1.23539 0.737053 0.753154 1.15901C0.270918 1.58097 0 2.15326 0 2.75L0 19.25C0 19.8467 0.270918 20.419 0.753154 20.841C1.23539 21.2629 1.88944 21.5 2.57143 21.5H21.4286C22.1106 21.5 22.7646 21.2629 23.2468 20.841C23.7291 20.419 24 19.8467 24 19.25V2.75C24 2.15326 23.7291 1.58097 23.2468 1.15901C22.7646 0.737053 22.1106 0.5 21.4286 0.5ZM20.5114 14.0938C20.4423 15.2952 20.1289 16.3597 19.1266 17.2344C18.1243 18.1091 16.9088 18.3889 15.5373 18.4461C14.1225 18.5159 9.88071 18.5159 8.46589 18.4461C7.09286 18.3856 5.88054 18.1109 4.87661 17.2344C3.87268 16.3578 3.55714 15.2928 3.49179 14.0938C3.41196 12.8553 3.41196 9.14328 3.49179 7.90625C3.56089 6.70484 3.87054 5.64031 4.87661 4.76562C5.88268 3.89094 7.09821 3.61438 8.46589 3.55719C9.88071 3.48734 14.1225 3.48734 15.5373 3.55719C16.9104 3.61766 18.1264 3.89234 19.1266 4.76891C20.1268 5.64547 20.4461 6.71047 20.5114 7.91187C20.5913 9.14563 20.5913 12.8544 20.5114 14.0938Z" fill="white"/>
</svg>
