<svg width="25" height="25" viewBox="0 0 25 25" fill="none" xmlns="http://www.w3.org/2000/svg">
<path d="M24.4644 10.6288C25.2604 10.0656 24.8619 8.8125 23.8868 8.8125H16.6618C16.2304 8.8125 15.8476 8.53588 15.7123 8.12629L13.4495 1.27932C13.1471 0.364367 11.8529 0.36437 11.5505 1.27932L9.28772 8.12629C9.15236 8.53588 8.7696 8.8125 8.33822 8.8125H1.08083C0.108792 8.8125 -0.291775 10.0591 0.498321 10.6253L6.33375 14.8073C6.68848 15.0615 6.83738 15.5164 6.70162 15.9312L4.48937 22.6903C4.18873 23.6088 5.23667 24.3772 6.02227 23.8142L11.9175 19.5893C12.2657 19.3398 12.7343 19.3398 13.0825 19.5893L18.9656 23.8055C19.7524 24.3693 20.8014 23.5979 20.4976 22.6789L18.2541 15.8901C18.1161 15.4727 18.267 15.014 18.626 14.76L24.4644 10.6288Z" fill="#FFCE31"/>
</svg>
