<svg width="17" height="16" viewBox="0 0 17 16" fill="none" xmlns="http://www.w3.org/2000/svg">
<path d="M1.79134 9.08366H13.1572L9.67843 13.807C9.59788 13.9165 9.53721 14.0429 9.49988 14.179C9.46255 14.315 9.4493 14.4581 9.46086 14.5999C9.48423 14.8864 9.6073 15.1506 9.80301 15.3345C9.99872 15.5184 10.251 15.6068 10.5044 15.5804C10.7578 15.554 10.9916 15.4149 11.1543 15.1937L15.9459 8.69366C15.9782 8.64196 16.007 8.58765 16.0322 8.53116C16.0322 8.477 16.0801 8.4445 16.0993 8.39033C16.1427 8.26611 16.1654 8.13389 16.1663 8.00033C16.1654 7.86677 16.1427 7.73454 16.0993 7.61033C16.0993 7.55616 16.0513 7.52366 16.0322 7.4695C16.007 7.41301 15.9782 7.3587 15.9459 7.30699L11.1543 0.806994C11.0642 0.684705 10.9513 0.58636 10.8238 0.518953C10.6962 0.451547 10.5571 0.416736 10.4163 0.416994C10.1924 0.4165 9.97542 0.504656 9.80301 0.666161C9.70597 0.757106 9.62576 0.868798 9.56696 0.994841C9.50816 1.12088 9.47194 1.2588 9.46037 1.40069C9.4488 1.54258 9.4621 1.68566 9.49952 1.82173C9.53694 1.9578 9.59773 2.08419 9.67843 2.19366L13.1572 6.917H1.79134C1.53718 6.917 1.29342 7.03113 1.1137 7.2343C0.933975 7.43746 0.833008 7.71301 0.833008 8.00033C0.833008 8.28765 0.933975 8.5632 1.1137 8.76636C1.29342 8.96953 1.53718 9.08366 1.79134 9.08366Z" fill="#0075FF"/>
</svg>
