<svg width="26" height="24" viewBox="0 0 26 24" fill="none" xmlns="http://www.w3.org/2000/svg">
<path d="M13 24C5.81994 24 0 18.6278 0 12C0 5.37225 5.81994 0 13 0C20.1801 0 26 5.37225 26 12C26 18.6278 20.1801 24 13 24ZM9.84425 10.803L13 7.89L16.1574 10.8045L17.9936 9.1095L13 4.5L8.008 9.108L9.84425 10.803ZM4.875 12L6.71125 13.695L8.5475 12L6.71125 10.305L4.875 12ZM9.84425 13.197L8.00556 14.8898L8.008 14.892L13 19.5L17.9936 14.8905V14.8898L16.1574 13.1947L13 16.11L9.84425 13.197ZM17.4525 12L19.2887 13.695L21.125 12L19.2887 10.305L17.4525 12ZM14.8622 11.9985H14.8631L13 10.2795L11.6228 11.55L11.4644 11.6962L11.1386 11.9977L11.1353 12L11.1386 12.0023L12.9992 13.7205L14.8631 12.0007L14.8639 12L14.8622 11.9992V11.9985Z" fill="white"/>
</svg>
